# xmcd
#
# Track frame offsets: 
#        150
#        26690
#        47652
#        66072
#        88197
#        107347
#        131085
#        156045
#        177865
#        201875
#        219270
#        240720
#
# Disc length: 3492 seconds
#
# Revision: 0
# Processed by: cddbd v1.5.2PL0 Copyright (c) Steve Scherf et al.
# Submitted via: ExactAudioCopy v1.0b3
#
DISCID=9e0da20c
DTITLE=Che Linh - Nguoi Nhap Cuoc
DYEAR=1990
DGENRE=
TTITLE0=Nguoi nhap cuoc
TTITLE1=Nguoi ve don vi moi
TTITLE2=Xin dung yeu toi
TTITLE3=Bong co may
TTITLE4=Giua long dat Me
TTITLE5=Xin tron tuoi loan
TTITLE6=Nhan dien thoi gian
TTITLE7=Co lang gieng
TTITLE8=Dem tren dinh sau
TTITLE9=Con duong tinh su
TTITLE10=Dem buon pho thi
TTITLE11=Gia tu vu khi
EXTD=
EXTT0=
EXTT1=
EXTT2=
EXTT3=
EXTT4=
EXTT5=
EXTT6=
EXTT7=
EXTT8=
EXTT9=
EXTT10=
EXTT11=
PLAYORDER=
